<?xml version="1.0" encoding="UTF-8" standalone="no"?>
<svg
   height="1024"
   version="1.2"
   width="1024"
   id="svg2328"
   xmlns:xlink="http://www.w3.org/1999/xlink"
   xmlns="http://www.w3.org/2000/svg"
   xmlns:svg="http://www.w3.org/2000/svg">
  <defs
     id="defs2282">
    <linearGradient
       id="grad1"
       x1="0"
       x2="0"
       y1="0"
       y2="1">
      <stop
         offset="0"
         stop-color="#ee0000"
         id="stop2277" />
      <stop
         offset="1"
         stop-color="#1a1a1a"
         id="stop2279" />
    </linearGradient>
    <linearGradient
       xlink:href="#grad1"
       id="linearGradient2473"
       x1="329.08966"
       y1="1359.6599"
       x2="329.08966"
       y2="1361.3918"
       gradientTransform="scale(1.7320508,0.57735027)"
       gradientUnits="userSpaceOnUse" />
    <linearGradient
       xlink:href="#grad1"
       id="linearGradient2475"
       x1="397.39401"
       y1="1110.1576"
       x2="397.39401"
       y2="1111.5719"
       gradientTransform="scale(1.4142136,0.70710678)"
       gradientUnits="userSpaceOnUse" />
    <linearGradient
       xlink:href="#grad1"
       id="linearGradient2477"
       x1="558"
       y1="785"
       x2="558"
       y2="786"
       gradientUnits="userSpaceOnUse" />
    <linearGradient
       xlink:href="#grad1"
       id="linearGradient2479"
       x1="575"
       y1="784"
       x2="575"
       y2="785"
       gradientUnits="userSpaceOnUse" />
    <linearGradient
       xlink:href="#grad1"
       id="linearGradient2481"
       x1="582"
       y1="783"
       x2="582"
       y2="784"
       gradientUnits="userSpaceOnUse" />
    <linearGradient
       xlink:href="#grad1"
       id="linearGradient2483"
       x1="337.74991"
       y1="1352.7317"
       x2="337.74991"
       y2="1356.1958"
       gradientTransform="scale(1.7320508,0.57735027)"
       gradientUnits="userSpaceOnUse" />
    <linearGradient
       xlink:href="#grad1"
       id="linearGradient2485"
       x1="484.18246"
       y1="954.07623"
       x2="484.18246"
       y2="956.52576"
       gradientTransform="scale(1.2247449,0.81649658)"
       gradientUnits="userSpaceOnUse" />
    <linearGradient
       xlink:href="#grad1"
       id="linearGradient2487"
       x1="410.12192"
       y1="1100.2582"
       x2="410.12192"
       y2="1101.6724"
       gradientTransform="scale(1.4142136,0.70710678)"
       gradientUnits="userSpaceOnUse" />
    <linearGradient
       xlink:href="#grad1"
       id="linearGradient2489"
       x1="292"
       y1="1552"
       x2="292"
       y2="1554"
       gradientTransform="scale(2,0.5)"
       gradientUnits="userSpaceOnUse" />
    <linearGradient
       xlink:href="#grad1"
       id="linearGradient2491"
       x1="375.67859"
       y1="1215.8958"
       x2="375.67859"
       y2="1219.058"
       gradientTransform="scale(1.5811388,0.63245553)"
       gradientUnits="userSpaceOnUse" />
    <linearGradient
       xlink:href="#grad1"
       id="linearGradient2493"
       x1="143.39"
       y1="2772.6689"
       x2="143.39"
       y2="2776.2744"
       gradientTransform="scale(3.6055513,0.2773501)"
       gradientUnits="userSpaceOnUse" />
    <linearGradient
       xlink:href="#grad1"
       id="linearGradient2495"
       x1="525"
       y1="765"
       x2="525"
       y2="766"
       gradientUnits="userSpaceOnUse" />
    <linearGradient
       xlink:href="#grad1"
       id="linearGradient2497"
       x1="210.2365"
       y1="1947.8254"
       x2="210.2365"
       y2="1952.9246"
       gradientTransform="scale(2.5495098,0.39223227)"
       gradientUnits="userSpaceOnUse" />
    <linearGradient
       xlink:href="#grad1"
       id="linearGradient2499"
       x1="314.07855"
       y1="1318.0907"
       x2="314.07855"
       y2="1319.8228"
       gradientTransform="scale(1.7320508,0.57735027)"
       gradientUnits="userSpaceOnUse" />
    <linearGradient
       xlink:href="#grad1"
       id="linearGradient2501"
       x1="521"
       y1="749"
       x2="521"
       y2="750"
       gradientUnits="userSpaceOnUse" />
    <linearGradient
       xlink:href="#grad1"
       id="linearGradient2503"
       x1="516"
       y1="749"
       x2="516"
       y2="750"
       gradientUnits="userSpaceOnUse" />
    <linearGradient
       xlink:href="#grad1"
       id="linearGradient2505"
       x1="548"
       y1="740"
       x2="548"
       y2="741"
       gradientUnits="userSpaceOnUse" />
    <linearGradient
       xlink:href="#grad1"
       id="linearGradient2507"
       x1="318.69736"
       y1="1279.9855"
       x2="318.69736"
       y2="1283.4496"
       gradientTransform="scale(1.7320508,0.57735027)"
       gradientUnits="userSpaceOnUse" />
    <linearGradient
       xlink:href="#grad1"
       id="linearGradient2509"
       x1="620"
       y1="556"
       x2="620"
       y2="557"
       gradientUnits="userSpaceOnUse" />
    <linearGradient
       xlink:href="#grad1"
       id="linearGradient2511"
       x1="462.33267"
       y1="258.22318"
       x2="462.33267"
       y2="565.63165"
       gradientTransform="scale(0.81975606,1.2198751)"
       gradientUnits="userSpaceOnUse" />
    <linearGradient
       xlink:href="#grad1"
       id="linearGradient2513"
       x1="216.33372"
       y1="205.57127"
       x2="216.33372"
       y2="792.05402"
       gradientTransform="scale(1.0077023,0.99235658)"
       gradientUnits="userSpaceOnUse" />
  </defs>
  <g
     id="g2558">
    <polygon
       fill="url(#grad1)"
       points="571,786 572,785 573,785 570,785 570,786 "
       id="polygon2284"
       style="fill:url(#linearGradient2473)"
       transform="translate(-1.5,-81.371094)" />
    <polygon
       fill="url(#grad1)"
       points="562,785 562,786 564,786 563,785 "
       id="polygon2286"
       style="fill:url(#linearGradient2475)"
       transform="translate(-1.5,-81.371094)" />
    <polygon
       fill="url(#grad1)"
       points="558,785 558,786 559,786 "
       id="polygon2288"
       style="fill:url(#linearGradient2477)"
       transform="translate(-1.5,-81.371094)" />
    <polygon
       fill="url(#grad1)"
       points="576,784 575,785 576,785 "
       id="polygon2290"
       style="fill:url(#linearGradient2479)"
       transform="translate(-1.5,-81.371094)" />
    <polygon
       fill="url(#grad1)"
       points="582,783 582,784 583,784 "
       id="polygon2292"
       style="fill:url(#linearGradient2481)"
       transform="translate(-1.5,-81.371094)" />
    <polygon
       fill="url(#grad1)"
       points="590,782 591,781 589,781 587,783 585,783 587,783 588,782 "
       id="polygon2294"
       style="fill:url(#linearGradient2483)"
       transform="translate(-1.5,-81.371094)" />
    <polygon
       fill="url(#grad1)"
       points="595,780 596,780 596,779 595,780 594,780 593,781 594,781 "
       id="polygon2296"
       style="fill:url(#linearGradient2485)"
       transform="translate(-1.5,-81.371094)" />
    <polygon
       fill="url(#grad1)"
       points="580,778 581,779 582,778 "
       id="polygon2298"
       style="fill:url(#linearGradient2487)"
       transform="translate(-1.5,-81.371094)" />
    <polygon
       fill="url(#grad1)"
       points="584,777 587,777 588,776 587,776 586,777 "
       id="polygon2300"
       style="fill:url(#linearGradient2489)"
       transform="translate(-1.5,-81.371094)" />
    <polygon
       fill="url(#grad1)"
       points="597,770 599,770 599,769 598,770 595,770 594,771 596,771 "
       id="polygon2302"
       style="fill:url(#linearGradient2491)"
       transform="translate(-1.5,-81.371094)" />
    <polygon
       fill="url(#grad1)"
       points="517,770 530,770 530,769 529,770 526,770 525,769 524,770 523,770 522,769 521,770 "
       id="polygon2304"
       style="fill:url(#linearGradient2493)"
       transform="translate(-1.5,-81.371094)" />
    <polygon
       fill="url(#grad1)"
       points="525,765 525,766 526,766 526,765 "
       id="polygon2306"
       style="fill:url(#linearGradient2495)"
       transform="translate(-1.5,-81.371094)" />
    <polygon
       fill="url(#grad1)"
       points="543,765 536,765 537,765 538,766 539,765 540,766 541,766 542,765 549,765 548,764 544,764 "
       id="polygon2308"
       style="fill:url(#linearGradient2497)"
       transform="translate(-1.5,-81.371094)" />
    <polygon
       fill="url(#grad1)"
       points="544,761 545,762 546,762 547,761 "
       id="polygon2310"
       style="fill:url(#linearGradient2499)"
       transform="translate(-1.5,-81.371094)" />
    <polygon
       fill="url(#grad1)"
       points="521,749 521,750 522,750 522,749 "
       id="polygon2312"
       style="fill:url(#linearGradient2501)"
       transform="translate(-1.5,-81.371094)" />
    <polygon
       fill="url(#grad1)"
       points="516,749 516,750 517,750 517,749 "
       id="polygon2314"
       style="fill:url(#linearGradient2503)"
       transform="translate(-1.5,-81.371094)" />
    <polygon
       fill="url(#grad1)"
       points="548,740 548,741 549,741 549,740 "
       id="polygon2316"
       style="fill:url(#linearGradient2505)"
       transform="translate(-1.5,-81.371094)" />
    <polygon
       fill="url(#grad1)"
       points="554,740 553,741 552,740 553,741 556,741 557,740 558,741 558,740 557,739 556,740 "
       id="polygon2318"
       style="fill:url(#linearGradient2507)"
       transform="translate(-1.5,-81.371094)" />
    <polygon
       fill="url(#grad1)"
       points="621,556 620,557 621,557 "
       id="polygon2320"
       style="fill:url(#linearGradient2509)"
       transform="translate(-1.5,-81.371094)" />
    <polygon
       fill="url(#grad1)"
       points="529,323 526,326 525,326 524,327 523,327 522,328 521,328 520,329 519,329 518,330 517,330 515,332 514,332 513,333 512,333 509,336 507,336 506,337 505,337 505,338 503,340 501,340 499,342 498,342 496,344 494,344 491,347 489,347 487,349 486,349 483,352 482,352 481,353 480,353 479,354 478,354 477,355 476,355 474,357 473,357 471,359 470,359 467,362 466,362 465,363 464,363 463,364 462,364 461,365 460,365 458,367 457,367 455,369 453,369 451,371 450,371 448,373 447,373 445,375 444,375 442,377 441,377 439,379 438,379 437,380 436,380 434,382 433,382 432,383 431,383 430,384 429,384 429,385 428,386 426,386 425,387 424,387 422,389 421,389 420,390 419,390 418,391 417,391 414,394 413,394 411,396 410,396 409,397 407,397 404,400 403,400 401,402 400,402 399,403 398,403 396,405 394,405 391,408 389,408 385,412 384,412 384,414 383,415 382,415 382,416 381,417 381,421 383,423 381,425 381,429 382,430 380,432 380,433 379,434 379,436 380,436 381,437 380,438 381,439 381,440 382,440 387,445 387,446 388,447 389,446 390,447 391,447 392,448 393,448 394,449 395,449 396,450 397,450 398,449 399,450 400,450 401,451 410,451 411,452 418,452 419,453 425,453 426,454 428,454 429,455 430,454 431,455 432,455 433,456 434,455 435,456 437,456 438,457 442,457 443,458 447,458 448,459 453,459 454,460 459,460 460,461 463,461 464,462 467,462 468,463 472,463 473,464 478,464 479,465 482,465 483,466 486,466 487,467 492,467 493,468 496,468 497,469 500,469 501,470 505,470 506,471 510,471 511,472 512,472 513,473 513,474 510,477 509,477 506,480 505,480 501,484 500,484 497,487 496,487 496,488 495,489 494,489 492,491 491,491 491,492 490,493 488,493 486,495 486,496 485,497 484,497 482,499 481,499 481,500 479,502 478,502 477,503 476,503 474,505 474,506 473,507 471,507 468,510 467,510 467,511 465,513 463,513 462,514 462,515 461,516 460,516 459,517 458,517 458,518 457,519 456,519 450,525 449,525 448,526 447,526 446,527 445,527 440,532 439,532 437,534 436,534 436,535 435,536 434,536 426,544 425,544 423,546 422,546 422,547 420,549 418,549 418,553 420,555 420,556 419,557 418,557 418,559 417,560 417,561 416,562 416,564 415,565 415,570 416,571 416,572 418,574 419,574 420,573 421,574 422,574 423,575 422,576 422,577 423,578 423,579 424,580 425,580 425,579 424,579 423,578 424,577 426,577 427,578 427,579 428,580 429,580 430,581 431,581 432,582 431,583 432,583 433,582 435,582 436,583 436,584 437,585 439,585 440,584 441,585 441,586 443,586 445,584 448,584 449,583 450,584 451,584 452,583 453,583 454,582 455,583 456,583 458,581 459,582 459,581 460,580 462,580 463,581 466,581 467,580 468,581 473,581 474,582 478,582 479,583 484,583 485,584 486,584 487,583 489,585 490,585 491,584 492,584 493,585 497,585 498,586 504,586 505,587 509,587 510,588 515,588 516,589 523,589 524,590 526,590 527,591 528,590 529,590 530,591 533,591 534,592 535,592 536,593 535,594 532,594 528,598 527,598 524,601 523,601 519,605 518,605 518,606 517,607 516,607 515,608 514,608 511,611 510,611 507,614 506,614 505,615 504,615 500,619 499,619 495,623 494,623 494,624 492,626 491,626 490,627 488,627 485,630 485,631 483,633 482,633 481,634 480,634 476,638 475,638 472,641 471,641 471,642 469,644 468,643 467,643 467,644 466,645 466,647 465,648 464,647 465,648 465,649 464,650 463,649 462,649 462,650 460,652 459,651 459,652 456,655 456,657 455,658 454,658 454,659 452,661 452,662 450,664 450,665 449,666 450,667 449,668 451,668 452,669 450,671 450,673 451,673 452,674 451,675 451,678 452,679 452,681 453,681 456,684 457,684 459,686 460,686 459,686 458,685 459,684 461,684 463,686 465,686 467,684 468,684 470,686 472,686 473,685 474,686 474,687 475,687 476,688 475,689 472,689 474,689 475,690 476,689 477,689 477,688 478,687 479,688 480,687 484,687 485,686 486,686 487,685 487,684 488,683 490,683 492,681 493,681 493,680 494,679 495,679 496,678 498,678 502,674 504,674 506,672 507,672 509,670 510,670 512,668 513,668 516,665 516,664 517,663 518,664 518,665 521,662 522,662 523,661 524,661 525,660 525,659 526,658 527,658 529,656 530,656 532,654 533,654 534,653 535,653 537,651 538,651 540,649 541,649 541,648 542,647 544,647 544,646 545,645 546,645 547,646 550,643 551,643 553,641 555,641 556,640 557,640 558,639 557,638 559,636 560,637 561,637 560,636 562,634 563,634 564,633 565,633 567,631 568,631 569,632 571,630 572,630 573,629 574,629 577,626 578,626 578,625 579,624 580,624 583,621 584,621 585,620 586,620 588,618 589,618 590,617 591,617 594,614 596,614 595,613 596,612 598,612 599,611 600,611 602,609 603,609 606,606 607,606 608,605 609,605 611,603 612,603 614,601 615,601 617,599 618,599 620,597 622,597 622,596 623,595 624,595 628,591 628,587 629,586 628,586 627,585 627,584 628,583 629,583 628,582 628,581 626,579 629,576 629,574 631,572 631,570 630,570 629,569 630,568 630,565 628,563 628,562 627,561 626,561 624,559 623,560 622,560 621,559 620,559 620,560 619,561 617,559 618,558 618,557 617,557 616,556 616,555 615,555 613,553 609,553 608,552 608,551 606,551 605,552 604,552 603,553 602,553 601,552 598,552 597,551 596,551 595,552 594,551 592,553 591,553 590,552 590,551 589,551 588,552 587,552 586,553 583,553 582,554 581,553 577,553 576,552 574,552 573,551 572,551 571,552 570,551 567,551 566,550 561,550 560,549 554,549 553,548 550,548 549,547 545,547 544,546 537,546 536,545 532,545 531,544 526,544 525,543 519,543 518,542 515,542 514,541 509,541 508,540 508,539 509,538 510,538 512,536 513,536 514,535 515,535 518,532 520,532 521,531 522,531 522,529 523,528 525,528 527,526 529,526 529,525 531,523 533,523 536,520 537,520 540,517 541,517 545,513 547,513 551,509 552,509 554,507 555,507 557,505 558,505 561,502 562,502 565,499 567,499 572,494 573,494 575,492 577,492 581,488 583,488 585,486 586,486 586,485 587,484 588,484 589,483 590,483 592,481 593,481 595,479 596,479 606,469 606,467 610,463 610,461 611,460 611,457 609,455 610,454 612,454 612,452 613,451 613,450 611,448 611,447 612,446 613,446 613,445 614,444 615,444 615,439 615,440 614,441 613,440 613,436 611,434 610,434 609,433 606,433 605,434 604,433 604,432 605,431 604,430 604,428 602,428 601,429 600,428 600,427 598,427 599,427 600,428 599,429 597,429 596,428 592,428 591,427 590,428 588,428 586,426 578,426 577,425 575,425 574,426 573,426 572,427 571,427 570,428 567,428 564,431 563,431 561,433 560,433 559,434 558,434 557,435 556,435 555,436 554,436 553,437 550,437 549,436 545,436 544,435 541,435 540,434 537,434 536,433 533,433 532,432 529,432 528,431 525,431 524,430 521,430 520,429 517,429 516,428 513,428 512,427 509,427 508,426 504,426 503,425 502,425 501,424 495,424 494,423 492,423 491,422 487,422 486,421 484,421 482,419 483,418 484,418 485,417 486,417 488,415 489,415 490,414 491,414 492,413 493,413 495,411 496,411 498,409 499,409 500,408 501,408 501,407 502,406 503,406 504,405 505,405 506,404 507,404 508,403 509,403 511,401 512,401 513,400 514,400 516,398 517,398 519,396 520,396 523,393 525,393 527,391 528,391 529,390 530,390 531,389 532,389 533,388 534,388 537,385 538,385 539,384 540,384 542,382 543,382 544,381 545,381 547,379 548,379 551,376 552,376 553,375 554,375 555,374 556,374 557,373 558,373 558,372 559,371 560,371 561,370 562,370 564,368 565,368 566,367 567,367 568,366 569,366 571,364 571,363 572,362 573,362 575,360 576,360 576,359 577,358 578,358 578,357 579,356 579,355 583,351 580,351 579,350 579,349 580,348 580,347 581,346 582,346 583,347 583,346 580,346 578,344 578,342 580,340 580,339 582,337 582,336 583,335 582,334 582,332 581,331 581,330 580,329 580,328 574,322 570,322 569,321 569,320 568,321 565,321 564,322 563,321 563,319 562,319 561,318 560,318 560,319 559,320 558,319 557,319 556,318 553,318 552,317 552,316 551,316 550,317 549,317 548,318 547,318 546,317 546,316 547,315 546,316 544,316 543,317 542,317 541,318 540,318 539,319 536,319 534,321 533,321 531,323 "
       id="polygon2322"
       style="fill:url(#linearGradient2511)"
       transform="translate(-1.5,-81.371094)" />
    <polygon
       fill="url(#grad1)"
       points="472,207 471,208 464,208 463,209 460,209 459,210 453,210 452,211 451,211 450,212 445,212 444,213 442,213 441,214 440,214 439,215 431,215 429,217 427,217 426,218 424,218 423,219 421,219 420,220 418,220 417,221 414,221 413,222 411,222 410,223 409,223 408,224 407,224 405,226 403,226 402,227 401,227 400,228 398,228 397,229 396,229 395,230 393,230 392,231 389,231 388,232 387,232 386,233 385,233 384,234 383,234 381,236 380,236 379,237 377,237 376,238 375,238 374,239 373,239 372,240 371,240 369,242 368,242 367,243 366,243 365,244 364,244 363,245 361,245 358,248 357,248 356,249 355,249 351,253 350,253 349,254 348,254 346,256 344,256 344,258 343,259 341,259 340,260 338,260 332,266 331,266 330,267 330,268 329,269 328,269 326,271 325,271 324,272 323,272 322,273 321,273 312,282 311,282 305,288 305,289 300,294 300,295 298,297 297,297 296,298 296,299 295,300 294,300 293,301 293,302 292,303 291,303 290,304 290,305 286,309 286,310 285,311 284,311 283,312 283,314 282,315 281,315 278,318 278,319 277,320 277,321 276,322 276,323 275,324 274,324 274,325 273,326 273,328 270,331 270,332 268,334 268,335 267,336 267,337 263,341 263,342 261,344 261,345 259,347 259,348 258,349 258,350 256,352 256,353 255,354 255,356 254,357 254,358 252,360 252,361 251,362 251,363 248,366 248,367 247,368 247,369 246,370 246,371 245,372 245,373 244,374 244,375 243,376 243,378 242,379 242,380 241,381 241,384 240,385 240,386 238,388 238,389 237,390 237,391 236,392 237,393 236,394 236,396 235,397 235,400 234,401 234,403 233,404 233,405 232,406 232,408 231,409 231,410 230,411 230,413 229,414 229,416 228,417 228,418 229,419 228,420 228,423 227,424 227,426 225,428 225,436 224,437 224,441 223,442 223,447 222,448 222,452 221,453 221,457 220,458 220,459 221,460 220,461 220,466 219,467 219,471 218,472 219,473 219,480 218,481 218,488 219,489 219,490 218,491 218,496 219,497 218,498 218,505 219,506 219,508 218,509 218,511 219,512 219,518 218,519 218,520 219,521 219,524 220,525 219,526 219,528 220,529 220,531 221,532 220,533 220,534 221,535 221,542 222,543 222,548 223,549 223,555 224,556 224,559 225,560 225,566 227,568 227,570 228,571 228,574 229,575 229,577 228,578 229,579 229,582 230,583 230,584 231,585 231,587 232,588 232,590 233,591 233,593 234,594 234,597 235,598 235,600 236,601 236,603 237,604 237,605 238,606 238,607 239,608 239,609 240,610 240,612 241,613 241,614 242,615 242,617 243,618 243,620 244,621 244,622 245,623 245,625 246,626 246,627 248,629 248,630 249,631 249,632 250,633 250,634 251,635 251,636 252,637 252,639 254,641 254,642 255,643 255,644 258,647 258,649 259,650 259,651 262,654 262,655 263,656 263,657 266,660 266,661 267,662 267,663 269,665 269,667 270,667 271,668 271,669 272,670 272,671 276,675 276,676 278,678 278,679 283,684 283,685 286,688 286,689 294,697 294,698 304,708 304,709 305,709 306,710 306,711 307,711 315,719 316,719 323,726 324,726 330,732 331,732 335,736 336,736 337,737 338,737 341,740 342,740 344,742 345,742 349,746 351,746 353,748 354,748 356,750 357,750 359,752 360,752 361,753 362,753 364,755 366,755 367,756 367,757 369,757 372,760 373,760 374,761 377,761 378,762 379,762 382,765 383,765 384,766 385,766 387,768 390,768 392,770 394,770 395,771 396,771 397,772 398,772 399,773 400,773 401,774 403,774 404,775 406,775 407,776 409,776 411,778 413,778 414,779 417,779 418,780 420,780 421,781 422,781 423,782 428,782 429,783 430,783 431,784 432,784 433,783 435,785 437,785 438,784 439,784 440,785 441,785 442,786 443,785 450,785 451,784 453,784 454,783 456,783 457,782 458,782 460,780 461,780 463,778 463,777 467,773 468,773 469,772 469,771 471,769 471,768 472,767 472,762 473,761 473,759 474,758 474,755 472,753 472,752 473,751 473,750 472,749 472,745 470,743 471,742 472,742 471,742 470,743 469,742 469,741 468,741 467,740 468,739 469,739 466,736 465,736 463,734 461,734 460,733 459,733 457,731 456,731 455,730 452,730 451,729 448,729 447,728 444,728 443,727 441,727 440,726 438,726 437,725 436,725 435,724 433,724 432,723 430,723 429,722 428,722 427,721 425,721 424,720 421,720 420,719 419,719 418,718 417,718 416,717 415,717 414,716 413,716 412,715 411,715 410,714 409,714 408,713 407,713 406,712 404,712 402,710 401,710 399,708 397,708 396,707 395,707 394,706 393,706 390,703 389,703 388,702 387,702 386,701 385,701 382,698 381,698 380,697 379,697 377,695 377,694 375,694 372,691 370,691 368,689 368,688 367,688 361,682 360,682 359,681 358,681 352,675 352,674 351,674 345,668 344,668 342,666 342,665 337,660 337,659 334,656 333,656 331,654 331,653 325,647 325,646 322,643 322,642 318,638 318,636 315,633 315,632 311,628 311,626 308,623 308,622 307,621 307,620 305,618 305,617 304,616 304,615 303,614 303,613 302,612 302,611 300,609 300,608 299,607 299,604 296,601 296,599 294,597 294,594 293,593 293,592 292,591 292,590 291,589 291,587 290,586 290,585 289,584 289,582 288,581 288,578 287,577 287,576 286,575 286,573 285,572 285,568 284,567 284,566 283,565 283,562 282,561 282,557 281,556 281,554 280,553 280,549 279,548 279,546 278,545 278,537 277,536 277,534 276,533 276,523 275,522 275,515 274,514 274,480 275,479 275,478 274,477 275,476 275,470 276,469 276,459 277,458 277,455 278,454 278,451 279,450 279,445 280,444 280,440 281,439 281,437 282,436 282,434 283,433 283,430 284,429 284,425 286,423 286,420 288,418 288,416 289,415 289,412 290,411 290,409 291,408 291,407 292,406 292,405 294,403 294,402 295,401 294,400 296,398 296,396 297,395 297,393 299,391 299,390 300,389 300,388 302,386 302,385 303,384 303,383 304,382 304,380 307,377 307,375 308,374 309,374 309,373 310,372 310,370 313,367 313,366 316,363 316,362 319,359 319,358 320,357 320,356 325,351 325,350 326,349 326,348 328,346 329,346 329,345 336,338 336,337 352,321 353,321 361,313 362,313 367,308 368,308 370,306 371,306 374,303 375,303 377,301 378,301 381,298 382,298 383,297 384,297 387,294 389,294 391,292 392,292 394,290 395,290 396,289 397,289 399,287 401,287 403,285 404,285 405,284 407,284 409,282 410,282 411,281 412,281 413,280 415,280 416,279 417,279 418,278 419,278 420,277 421,277 422,276 424,276 425,275 427,275 429,273 431,273 432,272 434,272 435,271 437,271 438,270 441,270 442,269 444,269 445,268 446,268 447,267 452,267 452,266 453,265 454,265 455,266 456,266 457,265 459,265 460,264 462,264 463,263 469,263 470,262 473,262 474,261 481,261 482,260 488,260 489,259 495,259 496,258 498,258 499,259 500,259 501,258 529,258 530,259 531,259 532,258 533,258 534,259 538,259 539,260 540,260 541,259 542,260 547,260 548,261 555,261 556,262 559,262 560,263 561,262 562,263 563,263 564,264 568,264 569,265 572,265 573,266 578,266 579,267 581,267 582,268 585,268 586,269 589,269 590,270 591,270 592,271 593,271 594,272 596,272 597,273 599,273 600,274 602,274 603,275 605,275 606,276 607,276 608,277 610,277 612,279 614,279 615,280 616,280 617,281 618,281 619,282 620,282 621,283 622,283 623,284 624,284 626,286 627,286 628,287 629,287 630,288 631,288 632,289 633,289 634,290 635,290 636,291 637,291 638,292 639,292 642,295 643,295 645,297 646,297 650,301 652,301 655,304 656,304 658,306 659,306 664,311 665,311 667,313 668,313 669,314 669,315 670,316 671,316 684,329 685,329 686,330 686,331 695,340 695,341 699,345 699,346 701,348 701,349 707,355 707,356 709,358 709,359 712,362 712,363 714,365 714,366 715,367 715,368 717,370 717,371 719,373 719,374 720,375 720,376 721,377 721,378 723,380 723,381 724,382 724,383 726,385 726,386 727,387 727,389 729,391 729,393 730,394 730,396 731,397 731,398 732,399 732,400 733,399 734,400 734,405 735,406 735,407 736,408 736,409 737,410 737,411 738,412 738,415 739,416 739,418 740,419 740,421 741,422 741,423 742,424 742,427 743,428 743,430 744,431 744,433 745,434 745,439 746,440 746,442 747,443 747,445 748,446 748,453 749,454 749,457 750,458 750,464 751,465 751,469 752,470 751,471 751,477 752,478 752,510 751,511 751,513 752,514 751,515 751,523 750,524 750,534 749,535 749,539 748,540 748,545 747,546 747,549 745,551 745,559 743,561 743,564 742,565 742,566 741,567 741,571 740,572 740,574 738,576 738,577 739,578 738,579 738,580 737,581 737,583 736,584 736,586 735,587 735,589 734,590 734,591 733,592 733,594 732,595 732,596 731,597 731,598 730,599 730,600 728,602 728,604 726,606 726,608 725,609 725,610 724,611 724,613 723,614 723,615 722,616 722,617 721,618 721,619 718,622 718,623 716,625 716,626 715,627 715,628 714,629 714,630 712,632 712,633 709,636 709,637 707,639 707,640 705,642 705,643 701,647 701,648 700,649 700,650 699,651 698,651 698,652 697,653 696,653 695,654 695,655 687,663 687,664 684,667 684,668 683,669 682,669 676,675 676,676 675,677 674,677 662,689 661,689 658,692 657,692 655,694 654,694 652,696 651,696 651,697 648,700 647,700 644,703 643,703 641,705 640,705 638,707 637,707 635,709 634,709 633,710 632,710 631,711 630,711 628,713 627,713 625,715 624,715 623,716 622,716 621,717 619,717 616,720 614,720 613,721 612,721 611,722 609,722 607,724 606,724 605,725 604,725 603,726 600,726 599,727 598,727 597,728 594,728 593,729 592,729 591,730 590,730 589,731 587,731 586,732 585,732 584,733 581,733 580,734 577,734 575,736 572,736 571,737 567,737 567,738 566,739 565,738 564,738 563,739 561,739 561,740 562,740 563,739 566,739 567,738 572,738 573,737 577,737 578,736 579,737 581,735 583,735 584,734 585,735 586,735 587,734 591,734 592,733 593,733 594,732 597,732 599,730 602,730 603,729 605,729 608,726 612,726 613,725 614,725 615,726 613,728 611,728 610,729 609,729 608,730 607,730 606,731 605,731 604,732 603,732 602,733 601,733 600,734 598,734 598,735 597,736 596,735 593,735 592,736 591,736 590,737 589,736 587,738 585,738 584,739 581,739 580,740 578,740 577,741 576,741 575,742 571,742 570,743 567,743 566,744 565,743 564,744 562,744 561,745 555,745 554,746 549,746 548,747 542,747 541,748 540,747 539,748 534,748 533,749 531,749 530,748 529,748 528,749 524,749 524,750 528,750 529,749 530,750 535,750 535,749 536,748 537,749 540,749 541,748 547,748 548,747 549,748 550,747 555,747 556,746 562,746 563,745 566,745 567,744 571,744 572,743 576,743 577,742 579,742 580,741 583,741 585,739 593,739 594,738 595,738 596,737 598,737 600,735 602,735 603,736 602,737 601,737 599,739 598,739 597,740 596,740 595,741 594,741 593,742 591,742 589,744 587,744 586,745 581,745 580,746 578,746 577,747 576,747 575,748 572,748 572,749 571,750 570,749 570,750 569,751 568,751 567,750 568,749 566,749 565,750 563,750 562,751 559,751 559,752 558,753 556,751 555,752 553,752 553,753 551,755 550,754 550,753 548,753 549,753 550,754 549,755 545,755 544,756 543,755 538,755 537,756 534,756 534,757 533,758 532,757 532,756 531,756 530,757 528,757 527,758 525,758 524,759 522,759 526,759 527,758 528,759 533,759 534,758 535,759 536,758 542,758 543,759 544,758 546,758 547,759 546,758 548,756 549,757 549,758 559,758 560,757 564,757 565,756 570,756 571,757 570,758 567,758 566,759 561,759 560,760 553,760 552,761 549,761 549,762 550,762 551,763 551,765 552,764 553,765 558,765 559,764 558,763 553,763 552,762 553,761 555,761 556,760 557,761 558,761 559,760 560,761 561,761 562,760 565,760 566,761 565,762 563,762 562,763 561,763 561,764 563,764 564,763 566,763 567,762 568,763 569,763 570,764 569,765 567,765 566,766 560,766 559,767 552,767 551,768 544,768 543,769 532,769 532,770 542,770 543,769 551,769 552,768 560,768 561,767 564,767 565,768 564,769 562,769 561,770 560,770 563,770 564,769 569,769 570,768 577,768 578,767 583,767 584,766 586,766 587,765 592,765 593,764 595,764 596,763 599,763 600,762 601,762 603,760 604,761 604,763 603,764 601,764 600,765 599,765 598,766 594,766 593,767 590,767 589,768 588,767 587,768 586,768 585,769 582,769 581,770 576,770 575,771 571,771 570,772 563,772 562,773 552,773 553,773 554,774 556,774 557,773 563,773 564,772 565,772 566,773 567,772 572,772 573,771 578,771 579,770 586,770 587,769 589,769 590,768 591,769 592,769 593,768 596,768 597,767 601,767 602,766 603,766 604,765 606,765 607,764 609,764 610,763 612,763 613,762 615,762 616,763 614,765 613,765 611,767 610,766 609,767 605,767 603,769 602,769 601,770 602,770 604,768 609,768 610,767 611,767 612,766 614,766 615,765 616,765 616,762 617,761 618,761 619,762 618,763 618,764 619,765 619,766 618,767 617,767 616,768 613,768 612,769 611,769 610,770 609,770 608,771 605,771 604,772 603,772 602,773 600,773 599,774 597,774 596,775 592,775 591,776 590,775 590,776 592,776 593,775 598,775 599,774 601,774 602,773 605,773 606,772 608,772 609,771 611,771 613,769 616,769 617,768 618,768 619,767 623,767 624,766 623,766 622,765 623,764 625,764 626,765 626,766 627,766 628,765 630,765 631,764 632,764 634,762 635,762 636,761 636,760 637,759 638,760 638,761 641,758 642,758 643,759 644,759 645,760 644,761 643,761 642,762 641,762 640,763 638,763 636,765 634,765 633,766 632,766 631,767 630,767 629,768 628,768 627,769 625,769 623,771 622,770 620,772 619,772 618,773 616,773 615,774 613,774 611,776 608,776 607,777 604,777 603,778 600,778 599,779 602,779 603,778 605,778 606,777 607,777 608,776 611,776 612,775 615,775 616,774 617,774 618,773 620,773 621,772 622,772 623,771 624,771 625,770 626,770 627,769 629,769 630,768 631,768 632,767 633,767 634,766 635,766 636,765 637,765 638,764 639,764 640,763 641,763 642,762 644,762 645,761 646,761 647,760 648,760 649,759 650,759 651,758 652,758 653,757 654,757 655,756 656,756 657,755 658,755 659,754 660,754 662,752 664,752 666,750 667,750 669,748 670,748 671,747 672,747 675,744 676,744 677,743 678,743 680,741 681,741 684,738 685,738 689,734 690,734 691,733 692,733 696,729 697,729 701,725 702,725 709,718 710,718 715,713 716,713 716,712 726,702 726,701 736,691 736,690 740,686 740,685 744,681 744,680 748,676 749,676 749,674 750,673 750,672 751,671 751,670 753,668 754,668 757,665 757,662 759,660 759,659 761,657 761,655 762,654 763,654 763,653 765,651 765,650 766,649 766,648 767,647 767,646 768,645 768,644 769,643 769,642 770,641 770,640 771,639 772,639 772,638 773,637 773,635 774,634 775,634 775,633 774,632 775,631 776,631 777,630 777,628 778,627 778,626 779,625 779,624 780,623 780,622 781,621 781,618 782,617 782,616 784,614 783,613 786,610 786,607 787,606 787,604 789,602 789,599 791,597 791,595 792,594 792,590 794,588 794,586 795,585 794,584 796,582 796,579 797,578 797,572 798,571 798,570 799,569 799,567 800,566 800,562 801,561 801,556 802,555 802,553 803,552 803,548 804,547 804,543 805,542 805,534 806,533 806,529 807,528 806,527 806,525 807,524 807,520 808,519 807,518 808,517 807,516 808,515 808,514 807,513 807,512 808,511 808,502 809,501 808,500 808,495 807,494 808,493 808,478 807,477 807,468 806,467 806,459 805,458 805,451 804,450 804,445 803,444 803,440 802,439 802,436 801,435 801,433 800,432 800,429 799,428 799,425 798,424 798,420 797,419 797,417 796,416 796,412 795,411 795,409 794,408 794,407 793,406 793,404 792,403 792,401 791,400 791,398 790,397 790,395 789,394 789,393 788,392 788,391 787,390 787,387 786,386 786,384 785,383 785,382 784,381 784,380 783,379 783,378 782,377 782,375 780,373 780,372 779,371 779,370 778,369 778,368 777,367 777,365 776,364 776,363 775,362 775,361 773,359 773,357 771,355 771,354 769,352 769,351 768,350 768,349 767,348 767,347 766,346 766,345 764,343 764,342 762,340 762,339 760,337 760,336 759,335 759,334 758,333 758,332 754,328 754,327 752,325 752,324 751,324 750,323 750,322 749,321 749,320 747,318 747,317 746,316 746,315 737,306 737,305 732,300 732,299 712,279 711,279 708,276 707,276 704,273 703,273 702,272 702,271 700,269 699,269 697,267 696,267 695,266 695,265 694,265 691,262 690,262 688,260 687,260 685,258 684,258 682,256 681,256 679,254 678,254 677,253 676,253 673,250 672,250 670,248 669,248 667,246 666,246 665,245 664,245 663,244 662,244 660,242 659,242 658,241 657,241 655,239 653,239 652,238 651,238 649,236 648,236 647,235 646,235 645,234 643,234 642,233 641,233 640,232 639,232 638,231 637,231 636,230 635,230 634,229 633,229 632,228 630,228 629,227 628,227 627,226 625,226 624,225 623,225 622,224 621,224 620,223 617,223 616,222 614,222 611,219 606,219 605,218 602,218 601,217 598,217 596,215 594,215 593,214 591,214 590,213 587,213 586,212 581,212 580,211 574,211 573,210 571,210 570,209 567,209 566,208 556,208 555,207 552,207 551,206 548,206 547,205 546,206 545,205 544,205 543,204 542,205 540,205 539,204 538,205 530,205 529,204 521,204 520,205 511,205 510,204 509,204 508,205 492,205 491,206 486,206 485,205 484,206 482,206 481,205 480,206 474,206 473,207 "
       id="polygon2324"
       style="fill:url(#linearGradient2513)"
       transform="translate(-1.5,-81.371094)" />
  </g>
  <text
     x="516.21875"
     y="898.62891"
     text-anchor="middle"
     font-family="Helvetica, Arial, sans-serif"
     font-size="144px"
     fill="#e0e0e0ff"
     id="text2326"
     style="font-size:100px">ZendoAI</text>
</svg>
